<svg width="301" height="48" viewBox="0 0 301 48" fill="none" xmlns="http://www.w3.org/2000/svg">
<path d="M39.7778 33.7197C39.7778 41.2453 33.5705 46.6909 25.9147 46.6909H0V1.29004H24.4626C31.9207 1.29004 37.995 6.60846 37.995 13.8727C37.995 17.828 36.2123 21.0734 33.3081 23.1464C37.2043 25.1558 39.7778 28.8533 39.7778 33.7197ZM7.5911 8.29298V20.2294H24.4626C27.8304 20.2294 30.4039 17.6338 30.4039 14.2612C30.4039 10.8886 27.8304 8.29298 24.4626 8.29298H7.5911ZM32.1867 33.3312C32.1867 29.7644 29.4802 26.9746 25.9147 26.9746H7.5911V39.6879H25.9147C29.4802 39.6879 32.1867 36.898 32.1867 33.3312Z" fill="#212121"/>
<path d="M80.409 39.5572V46.6909H45.4382V1.29004H80.4413V8.42365H53.0293V20.2294H78.7915V27.2995H53.0293V39.5572H80.4126H80.409Z" fill="#212121"/>
<path d="M131.574 46.6944H123.982V14.3283L109.922 37.1594H108.998L94.9372 14.2612V46.6909H87.3461V1.29004H95.5338L109.462 23.9904L123.454 1.29004H131.574V46.6944Z" fill="#212121"/>
<path d="M138.143 23.991C138.143 10.8256 148.772 0.446533 162.106 0.446533C175.441 0.446533 186.069 10.8256 186.069 23.991C186.069 37.1564 175.506 47.5354 162.106 47.5354C148.707 47.5354 138.143 37.1564 138.143 23.991ZM178.478 23.991C178.478 14.6502 171.347 7.7108 162.106 7.7108C152.866 7.7108 145.734 14.6502 145.734 23.991C145.734 33.3318 152.866 40.2711 162.106 40.2711C171.347 40.2711 178.478 33.3318 178.478 23.991Z" fill="#212121"/>
<path d="M197.595 43.4188H219.171V46.6878H194.13V0.922119H197.595V43.4188Z" fill="#212121"/>
<path d="M258.444 46.6878L253.998 35.0503H231.05L226.604 46.6878H222.943L240.726 0.922119H244.387L262.105 46.6878H258.444ZM232.358 31.7813H252.756L242.557 5.17179L232.358 31.7813Z" fill="#212121"/>
<path d="M293.154 22.955C297.731 24.7203 301 28.97 301 34.2003C301 41.1306 295.443 46.6878 288.512 46.6878H268.768V0.922119H287.009C293.677 0.922119 299.039 6.34862 299.039 12.952C299.039 17.3978 296.685 21.059 293.154 22.955ZM287.009 4.1911H272.233V21.7128H287.009C291.716 21.7128 295.573 17.7901 295.573 12.952C295.573 8.11387 291.716 4.1911 287.009 4.1911ZM288.512 43.4188C293.481 43.4188 297.535 39.2999 297.535 34.2003C297.535 29.1007 293.481 24.9818 288.512 24.9818H272.233V43.4188H288.512Z" fill="#212121"/>
</svg>
