<svg width="921" height="1334" viewBox="0 0 921 1334" fill="none" xmlns="http://www.w3.org/2000/svg">
<path d="M112.005 1102.36L398.8 1267.93C437.073 1290.03 484.213 1290.03 522.485 1267.93L809.28 1102.36C847.553 1080.26 871.116 1039.44 871.116 995.257V664.095C871.116 619.911 847.539 579.076 809.28 556.991L522.485 391.417C484.213 369.318 437.073 369.318 398.8 391.417L112.005 556.991C73.7324 579.091 50.1694 619.911 50.1694 664.095V995.257C50.1694 1039.44 73.7465 1080.28 112.005 1102.36Z" stroke="currentColor" stroke-width="98.531" stroke-miterlimit="10"/>
<path d="M111.835 777.518L398.631 943.092C436.903 965.191 484.043 965.191 522.315 943.092L809.111 777.518C847.383 755.419 870.946 714.599 870.946 670.415V339.252C870.946 295.068 847.369 254.234 809.111 232.149L522.315 66.5743C484.043 44.4752 436.903 44.4752 398.631 66.5743L111.835 232.149C73.563 254.248 50 295.068 50 339.252V670.415C50 714.599 73.5771 755.433 111.835 777.518Z" stroke="currentColor" stroke-width="98.531" stroke-miterlimit="10"/>
</svg>
