<svg width="1522" height="1335" viewBox="0 0 1522 1335" fill="none" xmlns="http://www.w3.org/2000/svg">
<path d="M1360.79 1036.4L979.691 1033.43C953.082 1033.21 928.593 1018.94 915.273 995.902L593.09 437.88C564.204 387.858 491.971 387.858 463.084 437.88L10.1679 1222.34C-18.7188 1272.37 17.3817 1334.92 75.155 1334.92H1445.9C1503.67 1334.92 1539.77 1272.37 1510.88 1222.34L1425.17 1073.89C1411.88 1050.86 1387.36 1036.59 1360.75 1036.37L1360.79 1036.4Z" fill="currentColor"/>
<path d="M586.287 301.831L769.352 618.904L952.417 935.977C966.212 959.897 991.745 974.641 1019.37 974.641H1234.01C1293.52 974.641 1330.7 910.223 1300.96 858.683L827.473 38.6553C797.732 -12.8851 723.348 -12.8851 693.576 38.6553L586.255 224.536C572.46 248.456 572.46 277.912 586.255 301.831H586.287Z" fill="currentColor"/>
</svg>
