<svg width="1164" height="1331" viewBox="0 0 1164 1331" fill="none" xmlns="http://www.w3.org/2000/svg">
<path d="M125.108 693.633L414.806 983.331C492.301 1060.83 492.301 1186.45 414.806 1263.91L348.057 1330.66L58.3967 1040.92C-19.0984 963.428 -19.0984 837.801 58.3967 760.344L125.145 693.595L125.108 693.633Z" fill="currentColor"/>
<path d="M815.182 3.55664L1104.88 293.255C1182.38 370.75 1182.38 496.377 1104.88 573.834L1038.13 640.583L748.434 350.884C670.939 273.389 670.939 147.763 748.434 70.3053L815.182 3.55664Z" fill="currentColor"/>
<path d="M125.108 0L1101.33 976.218C1178.82 1053.71 1178.82 1179.34 1101.33 1256.8L1034.58 1323.55L58.3967 347.328C-19.0984 269.833 -19.0984 144.206 58.3967 66.7487L125.108 0Z" fill="currentColor"/>
</svg>
