<svg width="1391" height="1387" viewBox="0 0 1391 1387" fill="none" xmlns="http://www.w3.org/2000/svg">
<path d="M672.883 620.736H242.872C136.916 620.736 51.0488 534.87 51.0488 428.913V51.8584H428.104C534.06 51.8584 619.927 137.725 619.927 243.681V519.159" stroke="currentColor" stroke-width="101.339" stroke-miterlimit="10"/>
<path d="M771.072 672.834V242.823C771.072 136.867 856.939 51 962.895 51H1339.95V428.055C1339.95 534.011 1254.08 619.878 1148.13 619.878H872.65" stroke="currentColor" stroke-width="101.339" stroke-miterlimit="10"/>
<path d="M718.113 765.924H1148.12C1254.08 765.924 1339.95 851.791 1339.95 957.747V1334.8H962.892C856.936 1334.8 771.069 1248.94 771.069 1142.98V867.501" stroke="currentColor" stroke-width="101.339" stroke-miterlimit="10"/>
<path d="M619.927 713.825V1143.84C619.927 1249.79 534.06 1335.66 428.104 1335.66H51.0488V958.604C51.0488 852.648 136.916 766.781 242.872 766.781H518.35" stroke="currentColor" stroke-width="101.339" stroke-miterlimit="10"/>
</svg>
