<svg width="1163" height="1405" viewBox="0 0 1163 1405" fill="none" xmlns="http://www.w3.org/2000/svg">
<path d="M989.233 410.064L581.639 0L321.889 258.474L352.343 289.125L731.349 670.405C812.373 751.9 816.149 883.746 737.485 967.513C654.797 1055.53 516.437 1056.9 431.997 971.966C349.287 888.738 349.646 754.194 432.828 671.439C439.706 664.603 502.255 605.055 502.255 605.055L241.561 342.781C241.561 342.781 178.652 404.24 171.303 411.526C-56.2176 637.91 -57.229 1005.99 169.055 1233.61C385.832 1451.7 732.562 1461.77 961.341 1263.16C1219.81 1038.78 1230.58 652.819 989.256 410.064H989.233Z" fill="currentColor"/>
</svg>
